# xmcd CD database file
#
# Track frame offsets:
#	182
#	16237
#	32627
#	43330
#	56002
#	73557
#	90110
#	104470
#	121152
#	142172
#	157675
#	175325
#	193290
#	214195
#	231412
#	245492
#	261357
#	279082
#	293850
#	314495
#
# Disc length: 4450 seconds
#
# Revision: 1
# Processed by: cddbd v1.5.2PL0 Copyright (c) Steve Scherf et al.
# Submitted via: CDex 1.79
#
DISCID=26116014
DTITLE=Emmylou Harris - Selections from PORTRAITS
DYEAR=1996
DGENRE=Country
TTITLE0=Boulder To Birmingham
TTITLE1=Love Hurts (featuring Gram Parsons)
TTITLE2=The Angels Rejoiced Last Night (featuring Gram Parsons)
TTITLE3=You're Still On My Mind
TTITLE4=Sweet Dreams
TTITLE5=Luxury Liner
TTITLE6=Evangeline
TTITLE7=Beneath Still Waters
TTITLE8=And I Love You So
TTITLE9=Dimming Of The Day
TTITLE10=Heaven Ain't Ready For You Yet
TTITLE11=That Lovin' You Feelin' Again (featuring Roy Orbison)
TTITLE12=Love Is
TTITLE13=To Know Him Is To Love Him ( featuring Dolly Parton and Linda Ronstadt)
TTITLE14=Gulf Coast Highway (featuring Willie Nelson)
TTITLE15=West Texas Waltz (featuring Floco Jimenez)
TTITLE16=Casey's Last Ride
TTITLE17=Hard Times
TTITLE18=Walls Of Time
TTITLE19=When I Paint My Masterpiece
EXTD=Reprise Archives\nPRO-CD-8444\n(Promotional Disc) YEAR: 1996
EXTT0=Background vocals by Herb Pedersen \nFrom the 1975 Reprise Records album "Pieces Of The Sky"\nProduced by Brian Ahern
EXTT1=From the 1974 Reprise Records album "Grievous Angel"\nProduced by Gram Parsons
EXTT2=From the 1976 Reprise Records album "Sleepless Nights"\nProduced by Gram Parsons
EXTT3=Produced by Brian Ahern
EXTT4=Supporting vocals by Rodney Crowell and Herb Pedersen\nFrom the Reprise Records album "Elite Hotel"\nProduced by Brian Ahern
EXTT5=Supporting vocals by Herb Pedersen\nFrom the 1977 Warner Brothers album "Luxury Liner"\nProduced by Brian Ahern
EXTT6=From the 1978 Warner Bros album "The Last Waltz"\nProduced by Robbie Robertson
EXTT7=Harmony vocals by Fayssoux Starling \nFrom the 1979 Warner Bros album "Blue Kentucky Girl"
EXTT8=Produced by Brian Ahern
EXTT9=Produced by Brian Ahern
EXTT10=From the 1980 A&M album "The Legend Of Jesse James" \nProduced by Johns, Glyn
EXTT11=From the 1980 Warner Bros album "Roadie" \nProduced by Brian Ahern
EXTT12=Previously unreleased alternate mix\nProduced by Richard Bennett and Emmylou Harris
EXTT13=From the 1987 Warner Bros album "Trio" \nProduced by George Massenburg
EXTT14=From the 1990 Reprise Records album "Duets"\nProduced by Brian Ahern
EXTT15=From the 1992 Reprise Records album "Partners"\nProduced by Bill Halverson
EXTT16=Produced by Richard Bennett and Allen Reynolds
EXTT17=From the 1992 Reprise Records album "At The Ryman"\nProduced by Allen Reynolds and Richard Bennett
EXTT18=From the 1992 Reprise Records album "At The Ryman"Produced by Allen Reynolds and Richard Bennett
EXTT19=Produced by Allen Reynolds and Richard Bennett
PLAYORDER=
